<svg width="22" height="21" viewBox="0 0 22 21" fill="none" xmlns="http://www.w3.org/2000/svg">
<path d="M6.71431 1L7.16972 0.10972C6.85971 -0.048861 6.48953 -0.0347608 6.19249 0.146943C5.89544 0.328646 5.71431 0.651787 5.71431 1L6.71431 1ZM8.14288 1.73077L7.68746 2.62105C7.97345 2.76734 8.3123 2.76734 8.59829 2.62105L8.14288 1.73077ZM9.57144 1L10.0275 0.110067C9.74142 -0.0365665 9.40226 -0.0366956 9.11603 0.10972L9.57144 1ZM10.9973 1.73077L10.5412 2.6207C10.8259 2.76659 11.1632 2.7675 11.4486 2.62316L10.9973 1.73077ZM12.4424 1L12.9014 0.111529C12.6162 -0.0357833 12.2776 -0.0372398 11.9911 0.107614L12.4424 1ZM13.8572 1.73077L13.3982 2.61924C13.6857 2.76774 14.0273 2.76796 14.3149 2.61983L13.8572 1.73077ZM15.2763 1L15.7326 0.110125C15.4456 -0.0369958 15.1053 -0.0366918 14.8186 0.110941L15.2763 1ZM16.7018 1.73077L16.2456 2.62064C16.5306 2.76677 16.8684 2.76751 17.1541 2.62265L16.7018 1.73077ZM18.1429 1L18.5982 0.109662C18.3133 -0.0360087 17.9759 -0.0365816 17.6906 0.108121L18.1429 1ZM19.5719 1.73077L19.1166 2.62111C19.4026 2.76736 19.7414 2.76732 20.0274 2.62099L19.5719 1.73077ZM21 1H22C22 0.651764 21.8188 0.328606 21.5218 0.14691C21.2247 -0.0347868 20.8545 -0.0488528 20.5445 0.109778L21 1ZM17.4286 20V19V20ZM13.8572 14.1538H14.8572C14.8572 13.6016 14.4094 13.1538 13.8572 13.1538V14.1538ZM1.71431 14.1538L1.70524 15.1538H1.71431V14.1538ZM1.00003 14.8846H2.00007L1.99999 14.8759L1.00003 14.8846ZM9.57144 4.38462C9.01916 4.38462 8.57144 4.83233 8.57144 5.38462C8.57144 5.9369 9.01916 6.38462 9.57144 6.38462V4.38462ZM18.1429 6.38462C18.6951 6.38462 19.1429 5.9369 19.1429 5.38462C19.1429 4.83233 18.6951 4.38462 18.1429 4.38462V6.38462ZM12.4286 8.03846C11.8763 8.03846 11.4286 8.48618 11.4286 9.03846C11.4286 9.59075 11.8763 10.0385 12.4286 10.0385V8.03846ZM18.1429 10.0385C18.6951 10.0385 19.1429 9.59075 19.1429 9.03846C19.1429 8.48618 18.6951 8.03846 18.1429 8.03846V10.0385ZM7.71431 14.1538V1H5.71431V14.1538H7.71431ZM6.25889 1.89028L7.68746 2.62105L8.59829 0.840489L7.16972 0.10972L6.25889 1.89028ZM8.59829 2.62105L10.0269 1.89028L9.11603 0.10972L7.68746 0.840489L8.59829 2.62105ZM9.11535 1.88993L10.5412 2.6207L11.4534 0.840836L10.0275 0.110067L9.11535 1.88993ZM11.4486 2.62316L12.8937 1.89239L11.9911 0.107614L10.5461 0.838383L11.4486 2.62316ZM11.9835 1.88847L13.3982 2.61924L14.3161 0.842299L12.9014 0.111529L11.9835 1.88847ZM14.3149 2.61983L15.7341 1.88906L14.8186 0.110941L13.3994 0.84171L14.3149 2.61983ZM14.8201 1.88988L16.2456 2.62064L17.158 0.840894L15.7326 0.110125L14.8201 1.88988ZM17.1541 2.62265L18.5951 1.89188L17.6906 0.108121L16.2495 0.83889L17.1541 2.62265ZM17.6876 1.89034L19.1166 2.62111L20.0272 0.840431L18.5982 0.109662L17.6876 1.89034ZM20.0274 2.62099L21.4555 1.89022L20.5445 0.109778L19.1164 0.840547L20.0274 2.62099ZM20 16.3462C20 17.0573 19.7237 17.7348 19.2388 18.2308L20.6691 19.6288C21.5238 18.7544 22 17.5732 22 16.3462H20ZM19.2388 18.2308C18.7547 18.7261 18.1031 19 17.4286 19V21C18.6485 21 19.8136 20.504 20.6691 19.6288L19.2388 18.2308ZM17.4286 19C16.754 19 16.1024 18.7261 15.6183 18.2308L14.1881 19.6288C15.0435 20.504 16.2087 21 17.4286 21V19ZM15.6183 18.2308C15.1335 17.7348 14.8572 17.0573 14.8572 16.3462H12.8572C12.8572 17.5732 13.3334 18.7544 14.1881 19.6288L15.6183 18.2308ZM14.8572 16.3462V14.1538H12.8572V16.3462H14.8572ZM13.8572 13.1538H1.71431V15.1538H13.8572V13.1538ZM1.72338 13.1539C1.4933 13.1518 1.26565 13.1967 1.05395 13.2852L1.82602 15.1302C1.78839 15.146 1.74726 15.1542 1.70524 15.1538L1.72338 13.1539ZM1.05395 13.2852C0.842313 13.3738 0.651576 13.504 0.492252 13.667L1.92251 15.065C1.89617 15.0919 1.86358 15.1145 1.82602 15.1302L1.05395 13.2852ZM0.492252 13.667C0.332975 13.8299 0.208225 14.0225 0.124161 14.2327L1.98124 14.9752C1.96838 15.0074 1.94879 15.0381 1.92251 15.065L0.492252 13.667ZM0.124161 14.2327C0.0401118 14.443 -0.00189197 14.6674 6.53863e-05 14.8933L1.99999 14.8759C2.00028 14.9094 1.99409 14.9431 1.98124 14.9752L0.124161 14.2327ZM2.78354e-05 14.8846C2.78354e-05 16.3138 0.058245 17.8415 0.67568 19.0067C1.00466 19.6275 1.49041 20.1481 2.17608 20.5009C2.84641 20.8459 3.64773 21 4.57145 21V19C3.8599 19 3.39717 18.88 3.09125 18.7226C2.80066 18.5731 2.59796 18.3629 2.4429 18.0702C2.09226 17.4085 2.00003 16.3785 2.00003 14.8846H2.78354e-05ZM4.57145 21H17.4286V19H4.57145V21ZM9.57144 6.38462H18.1429V4.38462H9.57144V6.38462ZM12.4286 10.0385H18.1429V8.03846H12.4286V10.0385ZM20 1V16.3462H22V1H20Z" fill="#B75DEF"/>
</svg>
