<svg width="23" height="23" viewBox="0 0 23 23" fill="none" xmlns="http://www.w3.org/2000/svg">
<path d="M1 9.07692H0V10.0769H1V9.07692ZM1.80769 9.07692V10.0769H2.80769V9.07692H1.80769ZM21.1923 9.07692H20.1923V10.0769H21.1923V9.07692ZM22 9.07692V10.0769H23V9.07692H22ZM6.03846 1C6.03846 0.447715 5.59075 0 5.03846 0C4.48618 0 4.03846 0.447715 4.03846 1H6.03846ZM4.03846 2.61538C4.03846 3.16767 4.48618 3.61538 5.03846 3.61538C5.59075 3.61538 6.03846 3.16767 6.03846 2.61538H4.03846ZM18.9615 1C18.9615 0.447715 18.5138 0 17.9615 0C17.4093 0 16.9615 0.447715 16.9615 1H18.9615ZM16.9615 2.61538C16.9615 3.16767 17.4093 3.61538 17.9615 3.61538C18.5138 3.61538 18.9615 3.16767 18.9615 2.61538H16.9615ZM3.42308 3.61538H19.5769V1.61538H3.42308V3.61538ZM19.5769 3.61538C20.3629 3.61538 21 4.25252 21 5.03846H23C23 3.14795 21.4674 1.61538 19.5769 1.61538V3.61538ZM21 5.03846V19.5769H23V5.03846H21ZM21 19.5769C21 20.3629 20.3629 21 19.5769 21V23C21.4674 23 23 21.4674 23 19.5769H21ZM19.5769 21H3.42308V23H19.5769V21ZM3.42308 21C2.63713 21 2 20.3629 2 19.5769H0C0 21.4674 1.53256 23 3.42308 23V21ZM2 19.5769V5.03846H0V19.5769H2ZM2 5.03846C2 4.25252 2.63713 3.61538 3.42308 3.61538V1.61538C1.53256 1.61538 0 3.14795 0 5.03846H2ZM18.6592 1.61538H4.34082V3.61538H18.6592V1.61538ZM4.34082 1.61538C1.9321 1.61538 0 3.59959 0 6.00769H2C2 4.67517 3.06545 3.61538 4.34082 3.61538V1.61538ZM0 6.00769V9.07692H2V6.00769H0ZM1 10.0769H1.80769V8.07692H1V10.0769ZM2.80769 9.07692C2.80769 8.99831 2.85707 8.83599 3.01961 8.67345C3.18215 8.51091 3.34446 8.46154 3.42308 8.46154V6.46154C2.694 6.46154 2.04862 6.81601 1.60539 7.25924C1.16216 7.70247 0.807692 8.34785 0.807692 9.07692H2.80769ZM3.42308 8.46154H19.5769V6.46154H3.42308V8.46154ZM19.5769 8.46154C19.6555 8.46154 19.8179 8.51091 19.9804 8.67345C20.1429 8.83599 20.1923 8.99831 20.1923 9.07692H22.1923C22.1923 8.34785 21.8378 7.70247 21.3946 7.25924C20.9514 6.81601 20.306 6.46154 19.5769 6.46154V8.46154ZM21.1923 10.0769H22V8.07692H21.1923V10.0769ZM23 9.07692V6.00769H21V9.07692H23ZM23 6.00769C23 3.59959 21.0679 1.61538 18.6592 1.61538V3.61538C19.9346 3.61538 21 4.67517 21 6.00769H23ZM13.7308 10.2885C13.7308 10.4053 13.6361 10.5 13.5192 10.5V12.5C14.7406 12.5 15.7308 11.5099 15.7308 10.2885H13.7308ZM13.5192 10.5C13.4024 10.5 13.3077 10.4053 13.3077 10.2885H11.3077C11.3077 11.5099 12.2978 12.5 13.5192 12.5V10.5ZM13.3077 10.2885C13.3077 10.1716 13.4024 10.0769 13.5192 10.0769V8.07692C12.2978 8.07692 11.3077 9.06706 11.3077 10.2885H13.3077ZM13.5192 10.0769C13.6361 10.0769 13.7308 10.1716 13.7308 10.2885H15.7308C15.7308 9.06706 14.7406 8.07692 13.5192 8.07692V10.0769ZM17.7692 10.2885C17.7692 10.4053 17.6745 10.5 17.5577 10.5V12.5C18.7791 12.5 19.7692 11.5099 19.7692 10.2885H17.7692ZM17.5577 10.5C17.4409 10.5 17.3462 10.4053 17.3462 10.2885H15.3462C15.3462 11.5099 16.3363 12.5 17.5577 12.5V10.5ZM17.3462 10.2885C17.3462 10.1716 17.4409 10.0769 17.5577 10.0769V8.07692C16.3363 8.07692 15.3462 9.06706 15.3462 10.2885H17.3462ZM17.5577 10.0769C17.6745 10.0769 17.7692 10.1716 17.7692 10.2885H19.7692C19.7692 9.06706 18.7791 8.07692 17.5577 8.07692V10.0769ZM13.7308 14.3269C13.7308 14.4438 13.6361 14.5385 13.5192 14.5385V16.5385C14.7406 16.5385 15.7308 15.5483 15.7308 14.3269H13.7308ZM13.5192 14.5385C13.4024 14.5385 13.3077 14.4438 13.3077 14.3269H11.3077C11.3077 15.5483 12.2978 16.5385 13.5192 16.5385V14.5385ZM13.3077 14.3269C13.3077 14.2101 13.4024 14.1154 13.5192 14.1154V12.1154C12.2978 12.1154 11.3077 13.1055 11.3077 14.3269H13.3077ZM13.5192 14.1154C13.6361 14.1154 13.7308 14.2101 13.7308 14.3269H15.7308C15.7308 13.1055 14.7406 12.1154 13.5192 12.1154V14.1154ZM17.7692 14.3269C17.7692 14.4438 17.6745 14.5385 17.5577 14.5385V16.5385C18.7791 16.5385 19.7692 15.5483 19.7692 14.3269H17.7692ZM17.5577 14.5385C17.4409 14.5385 17.3462 14.4438 17.3462 14.3269H15.3462C15.3462 15.5483 16.3363 16.5385 17.5577 16.5385V14.5385ZM17.3462 14.3269C17.3462 14.2101 17.4409 14.1154 17.5577 14.1154V12.1154C16.3363 12.1154 15.3462 13.1055 15.3462 14.3269H17.3462ZM17.5577 14.1154C17.6745 14.1154 17.7692 14.2101 17.7692 14.3269H19.7692C19.7692 13.1055 18.7791 12.1154 17.5577 12.1154V14.1154ZM5.65385 14.3269C5.65385 14.4438 5.55914 14.5385 5.44231 14.5385V16.5385C6.66371 16.5385 7.65385 15.5483 7.65385 14.3269H5.65385ZM5.44231 14.5385C5.32548 14.5385 5.23077 14.4438 5.23077 14.3269H3.23077C3.23077 15.5483 4.22091 16.5385 5.44231 16.5385V14.5385ZM5.23077 14.3269C5.23077 14.2101 5.32548 14.1154 5.44231 14.1154V12.1154C4.22091 12.1154 3.23077 13.1055 3.23077 14.3269H5.23077ZM5.44231 14.1154C5.55914 14.1154 5.65385 14.2101 5.65385 14.3269H7.65385C7.65385 13.1055 6.66371 12.1154 5.44231 12.1154V14.1154ZM9.69231 14.3269C9.69231 14.4438 9.5976 14.5385 9.48077 14.5385V16.5385C10.7022 16.5385 11.6923 15.5483 11.6923 14.3269H9.69231ZM9.48077 14.5385C9.36394 14.5385 9.26923 14.4438 9.26923 14.3269H7.26923C7.26923 15.5483 8.25937 16.5385 9.48077 16.5385V14.5385ZM9.26923 14.3269C9.26923 14.2101 9.36394 14.1154 9.48077 14.1154V12.1154C8.25937 12.1154 7.26923 13.1055 7.26923 14.3269H9.26923ZM9.48077 14.1154C9.5976 14.1154 9.69231 14.2101 9.69231 14.3269H11.6923C11.6923 13.1055 10.7022 12.1154 9.48077 12.1154V14.1154ZM5.65385 18.3654C5.65385 18.4822 5.55914 18.5769 5.44231 18.5769V20.5769C6.66371 20.5769 7.65385 19.5868 7.65385 18.3654H5.65385ZM5.44231 18.5769C5.32548 18.5769 5.23077 18.4822 5.23077 18.3654H3.23077C3.23077 19.5868 4.22091 20.5769 5.44231 20.5769V18.5769ZM5.23077 18.3654C5.23077 18.2486 5.32548 18.1538 5.44231 18.1538V16.1538C4.22091 16.1538 3.23077 17.144 3.23077 18.3654H5.23077ZM5.44231 18.1538C5.55914 18.1538 5.65385 18.2486 5.65385 18.3654H7.65385C7.65385 17.144 6.66371 16.1538 5.44231 16.1538V18.1538ZM9.69231 18.3654C9.69231 18.4822 9.5976 18.5769 9.48077 18.5769V20.5769C10.7022 20.5769 11.6923 19.5868 11.6923 18.3654H9.69231ZM9.48077 18.5769C9.36394 18.5769 9.26923 18.4822 9.26923 18.3654H7.26923C7.26923 19.5868 8.25937 20.5769 9.48077 20.5769V18.5769ZM9.26923 18.3654C9.26923 18.2486 9.36394 18.1538 9.48077 18.1538V16.1538C8.25937 16.1538 7.26923 17.144 7.26923 18.3654H9.26923ZM9.48077 18.1538C9.5976 18.1538 9.69231 18.2486 9.69231 18.3654H11.6923C11.6923 17.144 10.7022 16.1538 9.48077 16.1538V18.1538ZM13.7308 18.3654C13.7308 18.4822 13.6361 18.5769 13.5192 18.5769V20.5769C14.7406 20.5769 15.7308 19.5868 15.7308 18.3654H13.7308ZM13.5192 18.5769C13.4024 18.5769 13.3077 18.4822 13.3077 18.3654H11.3077C11.3077 19.5868 12.2978 20.5769 13.5192 20.5769V18.5769ZM13.3077 18.3654C13.3077 18.2486 13.4024 18.1538 13.5192 18.1538V16.1538C12.2978 16.1538 11.3077 17.144 11.3077 18.3654H13.3077ZM13.5192 18.1538C13.6361 18.1538 13.7308 18.2486 13.7308 18.3654H15.7308C15.7308 17.144 14.7406 16.1538 13.5192 16.1538V18.1538ZM4.03846 1V2.61538H6.03846V1H4.03846ZM16.9615 1V2.61538H18.9615V1H16.9615Z" fill="#B75DEF"/>
</svg>
