<svg width="22" height="22" viewBox="0 0 22 22" fill="none" xmlns="http://www.w3.org/2000/svg">
<path d="M10 3C10 3.55228 10.4477 4 11 4C11.5523 4 12 3.55228 12 3H10ZM12 1C12 0.447715 11.5523 0 11 0C10.4477 0 10 0.447715 10 1H12ZM10 21C10 21.5523 10.4477 22 11 22C11.5523 22 12 21.5523 12 21H10ZM12 19C12 18.4477 11.5523 18 11 18C10.4477 18 10 18.4477 10 19H12ZM11 3.8V2.8V3.8ZM18.2 11H19.2H18.2ZM19 10C18.4477 10 18 10.4477 18 11C18 11.5523 18.4477 12 19 12V10ZM21 12C21.5523 12 22 11.5523 22 11C22 10.4477 21.5523 10 21 10V12ZM1 10C0.447715 10 0 10.4477 0 11C0 11.5523 0.447715 12 1 12V10ZM3 12C3.55228 12 4 11.5523 4 11C4 10.4477 3.55228 10 3 10V12ZM12 3V1H10V3H12ZM12 21V19H10V21H12ZM11 2.8C9.37819 2.8 7.79281 3.28092 6.44432 4.18195L7.55546 5.84489C8.57505 5.16362 9.77376 4.8 11 4.8V2.8ZM6.44432 4.18195C5.09584 5.08298 4.04483 6.36364 3.42419 7.862L5.27195 8.62736C5.74121 7.49446 6.53588 6.52615 7.55546 5.84489L6.44432 4.18195ZM3.42419 7.862C2.80355 9.36035 2.64116 11.0091 2.95756 12.5997L4.91913 12.2096C4.6799 11.0069 4.80268 9.76026 5.27195 8.62736L3.42419 7.862ZM2.95756 12.5997C3.27396 14.1904 4.05493 15.6515 5.20172 16.7983L6.61594 15.3841C5.74885 14.517 5.15836 13.4122 4.91913 12.2096L2.95756 12.5997ZM5.20172 16.7983C6.34851 17.9451 7.80962 18.726 9.40026 19.0424L9.79044 17.0809C8.58776 16.8416 7.48302 16.2511 6.61594 15.3841L5.20172 16.7983ZM9.40026 19.0424C10.9909 19.3588 12.6397 19.1965 14.138 18.5758L13.3726 16.7281C12.2397 17.1973 10.9931 17.3201 9.79044 17.0809L9.40026 19.0424ZM14.138 18.5758C15.6364 17.9552 16.917 16.9042 17.8181 15.5557L16.1551 14.4445C15.4738 15.4641 14.5055 16.2588 13.3726 16.7281L14.138 18.5758ZM17.8181 15.5557C18.7191 14.2072 19.2 12.6218 19.2 11H17.2C17.2 12.2262 16.8364 13.425 16.1551 14.4445L17.8181 15.5557ZM19.2 11C19.2 8.82522 18.3361 6.73952 16.7983 5.20172L15.3841 6.61594C16.5468 7.77866 17.2 9.35566 17.2 11H19.2ZM16.7983 5.20172C15.2605 3.66393 13.1748 2.8 11 2.8V4.8C12.6443 4.8 14.2213 5.45321 15.3841 6.61594L16.7983 5.20172ZM19 12H21V10H19V12ZM1 12H3V10H1V12Z" fill="#BC67F0"/>
</svg>
