<svg width="23" height="23" viewBox="0 0 23 23" fill="none" xmlns="http://www.w3.org/2000/svg">
<path d="M22.2812 4.91883C21.4724 5.27028 20.6166 5.50182 19.7409 5.60614C20.6612 5.06724 21.3533 4.21112 21.6874 3.19832C20.8173 3.7071 19.8669 4.06409 18.8771 4.25399C18.4602 3.81714 17.9589 3.46961 17.4036 3.23253C16.8483 2.99545 16.2505 2.87377 15.6467 2.87489C13.2021 2.87489 11.2237 4.82449 11.2237 7.22782C11.222 7.56211 11.2603 7.89541 11.3378 8.22059C9.58484 8.13841 7.8683 7.69122 6.29804 6.90764C4.72778 6.12405 3.33836 5.02132 2.21869 3.67C1.82588 4.33221 1.61815 5.08776 1.61719 5.8577C1.61719 7.36707 2.40467 8.70125 3.59375 9.48289C2.88925 9.46617 2.19919 9.27971 1.58215 8.93934V8.99325C1.58215 11.1046 3.10949 12.861 5.13098 13.2608C4.75084 13.3622 4.35911 13.4135 3.9657 13.4136C3.68655 13.414 3.40803 13.387 3.1342 13.3327C3.69617 15.0622 5.33178 16.32 7.26926 16.3559C5.69492 17.5692 3.76204 18.225 1.77441 18.2202C1.42161 18.2197 1.06913 18.1987 0.71875 18.1573C2.74076 19.4485 5.0912 20.1314 7.49027 20.1249C15.6373 20.1249 20.0882 13.4899 20.0882 7.73543C20.0882 7.54676 20.0832 7.35809 20.0742 7.17391C20.9381 6.5594 21.6855 5.79576 22.2812 4.91883Z" fill="#A7A7A7"/>
</svg>
