<svg width="23" height="23" viewBox="0 0 23 23" fill="none" xmlns="http://www.w3.org/2000/svg">
<path fill-rule="evenodd" clip-rule="evenodd" d="M18.6305 4.36196C17.7001 3.43121 16.5949 2.69366 15.3784 2.19176C14.1619 1.68987 12.8582 1.43354 11.5422 1.43755C6.01953 1.43755 1.52375 5.91087 1.5215 11.4102C1.51906 13.1613 1.98065 14.8818 2.85928 16.3965L1.4375 21.5625L6.74951 20.1758C8.2199 20.9724 9.86589 21.3893 11.5382 21.3887H11.5422C17.0645 21.3887 21.5598 16.9149 21.5625 11.416C21.5658 10.1046 21.3083 8.80553 20.805 7.59451C20.3016 6.38348 19.5624 5.28466 18.6305 4.36196ZM11.5422 19.7055H11.5386C10.0478 19.7059 8.58417 19.307 7.29981 18.5501L6.99568 18.3704L3.84352 19.1934L4.6849 16.1346L4.4868 15.8202C3.65322 14.5005 3.21158 12.9711 3.21326 11.4102C3.21326 6.8403 6.95121 3.12212 11.5454 3.12212C13.7492 3.11818 15.8644 3.9898 17.4257 5.54526C18.987 7.10072 19.8665 9.21263 19.8707 11.4165C19.8689 15.9868 16.1328 19.7055 11.5422 19.7055ZM16.1103 13.4977C15.8601 13.3728 14.6279 12.77 14.3997 12.6869C14.1715 12.6038 14.003 12.562 13.8364 12.8118C13.6697 13.0615 13.1895 13.6204 13.0435 13.7888C12.8975 13.9573 12.7515 13.9757 12.5013 13.8508C12.2511 13.7259 11.4438 13.4631 10.4875 12.6141C9.74311 11.9533 9.24088 11.1375 9.09488 10.8882C8.94889 10.6389 9.07916 10.5037 9.20449 10.3797C9.31725 10.2678 9.45471 10.0886 9.58004 9.94305C9.70537 9.79751 9.74715 9.69329 9.83025 9.52708C9.91336 9.36087 9.87203 9.21532 9.80959 9.09089C9.74715 8.96645 9.24627 7.73964 9.03783 7.24055C8.83434 6.7545 8.62814 6.82053 8.47451 6.8129C8.32852 6.80571 8.16006 6.80391 7.9943 6.80391C7.86758 6.80721 7.7429 6.8366 7.62804 6.89024C7.51319 6.94388 7.41063 7.02062 7.32676 7.11567C7.09721 7.36544 6.45033 7.96919 6.45033 9.19465C6.45033 10.4201 7.34877 11.6061 7.47275 11.7723C7.59674 11.9385 9.23818 14.4555 11.7498 15.5349C12.2161 15.7347 12.6927 15.9098 13.1774 16.0596C13.7771 16.2492 14.3229 16.2227 14.7541 16.1584C15.2353 16.087 16.2366 15.5556 16.4446 14.9734C16.6525 14.3912 16.653 13.8926 16.5905 13.7888C16.5281 13.685 16.361 13.6222 16.1103 13.4977Z" fill="#A7A7A7"/>
</svg>
