<svg width="24" height="23" viewBox="0 0 24 23" fill="none" xmlns="http://www.w3.org/2000/svg">
<path d="M16.3748 3.11443C17.5342 3.11775 18.6451 3.56058 19.4648 4.3462C20.2846 5.13183 20.7467 6.19641 20.7502 7.30744V15.6926C20.7467 16.8036 20.2846 17.8682 19.4648 18.6538C18.6451 19.4394 17.5342 19.8822 16.3748 19.8856H7.62516C6.46582 19.8822 5.35495 19.4394 4.53517 18.6538C3.71539 17.8682 3.25331 16.8036 3.24984 15.6926V7.30744C3.25331 6.19641 3.71539 5.13183 4.53517 4.3462C5.35495 3.56058 6.46582 3.11775 7.62516 3.11443H16.3748ZM16.3748 1.4375H7.62516C4.25625 1.4375 1.5 4.07891 1.5 7.30744V15.6926C1.5 18.9211 4.25625 21.5625 7.62516 21.5625H16.3748C19.7437 21.5625 22.5 18.9211 22.5 15.6926V7.30744C22.5 4.07891 19.7437 1.4375 16.3748 1.4375Z" fill="#A7A7A7"/>
<path d="M17.6873 7.30737C17.4277 7.30737 17.1739 7.2336 16.9581 7.09539C16.7422 6.95718 16.574 6.76074 16.4747 6.5309C16.3753 6.30107 16.3493 6.04816 16.4 5.80417C16.4506 5.56018 16.5756 5.33606 16.7592 5.16015C16.9427 4.98424 17.1766 4.86445 17.4312 4.81592C17.6858 4.76738 17.9497 4.79229 18.1895 4.88749C18.4294 4.98269 18.6343 5.14391 18.7786 5.35076C18.9228 5.5576 18.9998 5.80079 18.9998 6.04956C19.0001 6.21484 18.9664 6.37856 18.9006 6.53132C18.8348 6.68409 18.7381 6.82289 18.6162 6.93976C18.4942 7.05663 18.3494 7.14926 18.19 7.21235C18.0306 7.27543 17.8597 7.30773 17.6873 7.30737Z" fill="#A7A7A7"/>
<path d="M12 8.14568C12.6923 8.14568 13.369 8.34241 13.9446 8.71099C14.5202 9.07956 14.9688 9.60344 15.2337 10.2164C15.4986 10.8293 15.568 11.5037 15.4329 12.1544C15.2978 12.8051 14.9645 13.4027 14.475 13.8719C13.9855 14.341 13.3618 14.6604 12.6828 14.7899C12.0039 14.9193 11.3001 14.8529 10.6606 14.599C10.021 14.3451 9.47433 13.9152 9.08973 13.3636C8.70513 12.8119 8.49985 12.1634 8.49985 11.5C8.50084 10.6107 8.86992 9.75804 9.52611 9.12919C10.1823 8.50034 11.072 8.14663 12 8.14568ZM12 6.46875C10.9617 6.46875 9.94662 6.76383 9.08326 7.31667C8.2199 7.86951 7.54699 8.65528 7.14963 9.57462C6.75227 10.494 6.64831 11.5056 6.85088 12.4815C7.05345 13.4575 7.55347 14.354 8.28769 15.0576C9.02192 15.7613 9.95738 16.2404 10.9758 16.4346C11.9942 16.6287 13.0498 16.5291 14.0091 16.1483C14.9684 15.7675 15.7883 15.1226 16.3652 14.2952C16.9421 13.4678 17.25 12.4951 17.25 11.5C17.25 10.1656 16.6969 8.88591 15.7123 7.94237C14.7277 6.99883 13.3924 6.46875 12 6.46875Z" fill="#A7A7A7"/>
</svg>
