<svg width="24" height="23" viewBox="0 0 24 23" fill="none" xmlns="http://www.w3.org/2000/svg">
<g clip-path="url(#clip0)">
<path d="M23.8425 6.68393C23.8425 4.66244 22.291 3.03627 20.3738 3.03627C17.7769 2.91992 15.1285 2.875 12.4219 2.875H11.5782C8.87817 2.875 6.22504 2.91992 3.62817 3.03672C1.71567 3.03672 0.164103 4.67188 0.164103 6.69336C0.0469159 8.29213 -0.00277159 9.89135 4.091e-05 11.4906C-0.00464659 13.0898 0.0484784 14.6905 0.159416 16.2927C0.159416 18.3142 1.71098 19.9538 3.62348 19.9538C6.3516 20.0751 9.15004 20.129 11.9954 20.1246C14.8454 20.1335 17.636 20.0766 20.3672 19.9538C22.2844 19.9538 23.836 18.3142 23.836 16.2927C23.9485 14.689 24 13.0898 23.9954 11.4861C24.006 9.88686 23.955 8.28614 23.8425 6.68393ZM9.70317 15.8974V7.07025L16.5 11.4816L9.70317 15.8974Z" fill="#A7A7A7"/>
</g>
<defs>
<clipPath id="clip0">
<rect width="24" height="23" fill="white"/>
</clipPath>
</defs>
</svg>
