<svg width="23" height="19" viewBox="0 0 23 19" fill="none" xmlns="http://www.w3.org/2000/svg">
<path d="M22.2812 2.91889C21.4724 3.27034 20.6166 3.50188 19.7409 3.6062C20.6612 3.0673 21.3533 2.21118 21.6874 1.19838C20.8173 1.70717 19.8669 2.06415 18.8771 2.25405C18.4602 1.8172 17.9589 1.46967 17.4036 1.23259C16.8483 0.99551 16.2505 0.873831 15.6467 0.874947C13.2021 0.874947 11.2237 2.82456 11.2237 5.22788C11.222 5.56217 11.2603 5.89547 11.3378 6.22065C9.58484 6.13847 7.8683 5.69128 6.29804 4.9077C4.72778 4.12411 3.33836 3.02139 2.21869 1.67006C1.82588 2.33227 1.61815 3.08782 1.61719 3.85776C1.61719 5.36713 2.40467 6.70131 3.59375 7.48295C2.88925 7.46624 2.19919 7.27977 1.58215 6.9394V6.99331C1.58215 9.10463 3.10949 10.8611 5.13098 11.2609C4.75084 11.3622 4.35911 11.4136 3.9657 11.4136C3.68655 11.4141 3.40803 11.387 3.1342 11.3328C3.69617 13.0623 5.33178 14.3201 7.26926 14.356C5.69492 15.5693 3.76204 16.2251 1.77441 16.2203C1.42161 16.2197 1.06913 16.1987 0.71875 16.1574C2.74076 17.4485 5.0912 18.1315 7.49027 18.1249C15.6373 18.1249 20.0882 11.49 20.0882 5.73549C20.0882 5.54682 20.0832 5.35815 20.0742 5.17397C20.9381 4.55947 21.6855 3.79582 22.2812 2.91889Z" fill="#DA9FFF"/>
</svg>
