<svg width="30" height="20" viewBox="0 0 30 20" fill="none" xmlns="http://www.w3.org/2000/svg">
<path d="M10.0195 6.00752C12.1026 6.00752 13.7912 7.79501 13.7912 10C13.7912 12.205 12.1026 13.9925 10.0195 13.9925M10.0195 6.00752C7.93646 6.00752 6.24782 7.79501 6.24782 10C6.24782 12.205 7.93646 13.9925 10.0195 13.9925M10.0195 6.00752H20.0793M10.0195 13.9925H20.0793M20.0793 6.00752C22.1623 6.00752 23.851 7.79501 23.851 10C23.851 12.205 22.1623 13.9925 20.0793 13.9925M20.0793 6.00752C17.9962 6.00752 16.3076 7.79501 16.3076 10C16.3076 12.205 17.9962 13.9925 20.0793 13.9925M2.912 8.14832H1V13.1435H2.912M27.088 8.14832H29V13.1435H27.088M21.8751 1H8.22956C5.533 1 3.34786 3.31305 3.34786 6.16746V13.8325C3.34786 16.6869 5.533 19 8.22956 19H21.8751C24.5716 19 26.7567 16.6869 26.7567 13.8325V6.16746C26.7567 3.31305 24.5716 1 21.8751 1Z" stroke="#B75DEF" stroke-width="2" stroke-linecap="round" stroke-linejoin="round"/>
</svg>
