<svg width="21" height="21" viewBox="0 0 21 21" fill="none" xmlns="http://www.w3.org/2000/svg">
<path fill-rule="evenodd" clip-rule="evenodd" d="M17.6305 3.36196C16.7001 2.43121 15.5949 1.69366 14.3784 1.19176C13.1619 0.689868 11.8582 0.433544 10.5422 0.437546C5.01953 0.437546 0.52375 4.91087 0.521504 10.4102C0.519061 12.1613 0.980648 13.8818 1.85928 15.3965L0.4375 20.5625L5.74951 19.1758C7.2199 19.9724 8.86589 20.3893 10.5382 20.3887H10.5422C16.0645 20.3887 20.5598 15.9149 20.5625 10.416C20.5658 9.10457 20.3083 7.80553 19.805 6.59451C19.3016 5.38348 18.5624 4.28466 17.6305 3.36196ZM10.5422 18.7055H10.5386C9.04785 18.7059 7.58417 18.307 6.29981 17.5501L5.99568 17.3704L2.84352 18.1934L3.6849 15.1346L3.4868 14.8202C2.65322 13.5005 2.21158 11.9711 2.21326 10.4102C2.21326 5.8403 5.95121 2.12212 10.5454 2.12212C12.7492 2.11818 14.8644 2.9898 16.4257 4.54526C17.987 6.10072 18.8665 8.21263 18.8707 10.4165C18.8689 14.9868 15.1328 18.7055 10.5422 18.7055ZM15.1103 12.4977C14.8601 12.3728 13.6279 11.77 13.3997 11.6869C13.1715 11.6038 13.003 11.562 12.8364 11.8118C12.6697 12.0615 12.1895 12.6204 12.0435 12.7888C11.8975 12.9573 11.7515 12.9757 11.5013 12.8508C11.2511 12.7259 10.4438 12.4631 9.48746 11.6141C8.74311 10.9533 8.24088 10.1375 8.09488 9.88821C7.94889 9.63889 8.07916 9.50368 8.20449 9.37969C8.31725 9.26784 8.45471 9.0886 8.58004 8.94305C8.70537 8.79751 8.74715 8.69329 8.83025 8.52708C8.91336 8.36087 8.87203 8.21532 8.80959 8.09089C8.74715 7.96645 8.24627 6.73964 8.03783 6.24055C7.83434 5.7545 7.62814 5.82053 7.47451 5.8129C7.32852 5.80571 7.16006 5.80391 6.9943 5.80391C6.86758 5.80721 6.7429 5.8366 6.62804 5.89024C6.51319 5.94388 6.41063 6.02062 6.32676 6.11567C6.09721 6.36544 5.45033 6.96919 5.45033 8.19465C5.45033 9.42012 6.34877 10.6061 6.47275 10.7723C6.59674 10.9385 8.23818 13.4555 10.7498 14.5349C11.2161 14.7347 11.6927 14.9098 12.1774 15.0596C12.7771 15.2492 13.3229 15.2227 13.7541 15.1584C14.2353 15.087 15.2366 14.5556 15.4446 13.9734C15.6525 13.3912 15.653 12.8926 15.5905 12.7888C15.5281 12.685 15.361 12.6222 15.1103 12.4977Z" fill="#DA9FFF"/>
</svg>
